<mxfile host="app.diagrams.net" agent="Mozilla/5.0 (X11; Linux x86_64) AppleWebKit/537.36 (KHTML, like Gecko) Chrome/136.0.0.0 Safari/537.36" version="26.2.15">
  <diagram name="k8s Service Routing" id="meh8bPrkDQd1ndtyiNP9">
    <mxGraphModel dx="2038" dy="1732" grid="1" gridSize="10" guides="1" tooltips="1" connect="1" arrows="1" fold="1" page="1" pageScale="1" pageWidth="850" pageHeight="1100" math="0" shadow="0">
      <root>
        <mxCell id="0" />
        <mxCell id="1" parent="0" />
        <mxCell id="BmUm8y3OecFrrXnxxm0O-18" value="" style="ellipse;whiteSpace=wrap;html=1;" vertex="1" parent="1">
          <mxGeometry x="-50" y="-70" width="990" height="320" as="geometry" />
        </mxCell>
        <mxCell id="BmUm8y3OecFrrXnxxm0O-1" value="Node" style="rounded=1;whiteSpace=wrap;html=1;fillColor=#dae8fc;strokeColor=#6c8ebf;" vertex="1" parent="1">
          <mxGeometry x="40" y="60" width="100" height="60" as="geometry" />
        </mxCell>
        <mxCell id="BmUm8y3OecFrrXnxxm0O-2" value="NodePort 30080" style="ellipse;whiteSpace=wrap;html=1;aspect=fixed;fillColor=#fff2cc;strokeColor=#d6b656;" vertex="1" parent="1">
          <mxGeometry x="180" y="75" width="120" height="30" as="geometry" />
        </mxCell>
        <mxCell id="BmUm8y3OecFrrXnxxm0O-3" value="kube-proxy" style="rounded=1;whiteSpace=wrap;html=1;fillColor=#e1d5e7;strokeColor=#9673a6;" vertex="1" parent="1">
          <mxGeometry x="340" y="70" width="100" height="40" as="geometry" />
        </mxCell>
        <mxCell id="BmUm8y3OecFrrXnxxm0O-4" value="Service (svc-web)" style="rounded=1;whiteSpace=wrap;html=1;fillColor=#d5e8d4;strokeColor=#82b366;" vertex="1" parent="1">
          <mxGeometry x="480" y="70" width="140" height="40" as="geometry" />
        </mxCell>
        <mxCell id="BmUm8y3OecFrrXnxxm0O-5" value="Pod A (10.244.1.10:80)" style="rounded=1;whiteSpace=wrap;html=1;fillColor=#fff2cc;strokeColor=#d6b656;" vertex="1" parent="1">
          <mxGeometry x="680" y="20" width="180" height="40" as="geometry" />
        </mxCell>
        <mxCell id="BmUm8y3OecFrrXnxxm0O-6" value="Pod B (10.244.1.11:80)" style="rounded=1;whiteSpace=wrap;html=1;fillColor=#fff2cc;strokeColor=#d6b656;" vertex="1" parent="1">
          <mxGeometry x="680" y="70" width="180" height="40" as="geometry" />
        </mxCell>
        <mxCell id="BmUm8y3OecFrrXnxxm0O-7" value="Pod C (10.244.1.12:80)" style="rounded=1;whiteSpace=wrap;html=1;fillColor=#fff2cc;strokeColor=#d6b656;" vertex="1" parent="1">
          <mxGeometry x="680" y="120" width="180" height="40" as="geometry" />
        </mxCell>
        <mxCell id="BmUm8y3OecFrrXnxxm0O-8" style="endArrow=block;html=1;" edge="1" parent="1" source="BmUm8y3OecFrrXnxxm0O-1" target="BmUm8y3OecFrrXnxxm0O-2">
          <mxGeometry relative="1" as="geometry" />
        </mxCell>
        <mxCell id="BmUm8y3OecFrrXnxxm0O-9" style="endArrow=block;html=1;" edge="1" parent="1" source="BmUm8y3OecFrrXnxxm0O-2" target="BmUm8y3OecFrrXnxxm0O-3">
          <mxGeometry relative="1" as="geometry" />
        </mxCell>
        <mxCell id="BmUm8y3OecFrrXnxxm0O-10" style="endArrow=block;html=1;" edge="1" parent="1" source="BmUm8y3OecFrrXnxxm0O-3" target="BmUm8y3OecFrrXnxxm0O-4">
          <mxGeometry relative="1" as="geometry" />
        </mxCell>
        <mxCell id="BmUm8y3OecFrrXnxxm0O-11" style="endArrow=open;html=1;dashed=1;" edge="1" parent="1" source="BmUm8y3OecFrrXnxxm0O-4" target="BmUm8y3OecFrrXnxxm0O-5">
          <mxGeometry relative="1" as="geometry" />
        </mxCell>
        <mxCell id="BmUm8y3OecFrrXnxxm0O-12" style="endArrow=open;html=1;dashed=1;" edge="1" parent="1" source="BmUm8y3OecFrrXnxxm0O-4" target="BmUm8y3OecFrrXnxxm0O-6">
          <mxGeometry relative="1" as="geometry" />
        </mxCell>
        <mxCell id="BmUm8y3OecFrrXnxxm0O-13" style="endArrow=open;html=1;dashed=1;" edge="1" parent="1" source="BmUm8y3OecFrrXnxxm0O-4" target="BmUm8y3OecFrrXnxxm0O-7">
          <mxGeometry relative="1" as="geometry" />
        </mxCell>
        <mxCell id="BmUm8y3OecFrrXnxxm0O-15" value="引入 Service 后的服务访问" style="text;html=1;align=center;verticalAlign=middle;resizable=0;points=[];autosize=1;strokeColor=none;fillColor=none;" vertex="1" parent="1">
          <mxGeometry x="360" y="190" width="170" height="30" as="geometry" />
        </mxCell>
        <mxCell id="BmUm8y3OecFrrXnxxm0O-19" value="nginx" style="text;html=1;align=center;verticalAlign=middle;resizable=0;points=[];autosize=1;strokeColor=none;fillColor=none;" vertex="1" parent="1">
          <mxGeometry x="860" y="30" width="50" height="30" as="geometry" />
        </mxCell>
        <mxCell id="BmUm8y3OecFrrXnxxm0O-21" value="nginx" style="text;html=1;align=center;verticalAlign=middle;resizable=0;points=[];autosize=1;strokeColor=none;fillColor=none;" vertex="1" parent="1">
          <mxGeometry x="860" y="75" width="50" height="30" as="geometry" />
        </mxCell>
        <mxCell id="BmUm8y3OecFrrXnxxm0O-22" value="nginx" style="text;html=1;align=center;verticalAlign=middle;resizable=0;points=[];autosize=1;strokeColor=none;fillColor=none;" vertex="1" parent="1">
          <mxGeometry x="860" y="125" width="50" height="30" as="geometry" />
        </mxCell>
      </root>
    </mxGraphModel>
  </diagram>
</mxfile>
